<svg xmlns="http://www.w3.org/2000/svg" height="20" viewBox="0 -960 960 960" width="20"><path d="M347.789-674.5q13.711 0 23.711-9.789 10-9.79 10-23.5 0-13.711-9.789-23.711-9.79-10-23.5-10-13.711 0-23.711 9.789-10 9.79-10 23.5 0 13.711 9.789 23.711 9.79 10 23.5 10Zm120 0q13.711 0 23.711-9.789 10-9.79 10-23.5 0-13.711-9.789-23.711-9.79-10-23.5-10-13.711 0-23.711 9.789-10 9.79-10 23.5 0 13.711 9.789 23.711 9.79 10 23.5 10Zm11.739 432q57.972 0 98.972-39.659 41-39.659 41-96.841 0-28-11-52.5t-31-44.5l-74-71q-9.955-10.5-23.227-10.5-13.273 0-23.931 10.447l-73.386 71.983Q363.5-456 352.5-431.151q-11 24.849-11 52.194-.033 56.91 40.243 96.683Q422.02-242.5 479.528-242.5Zm.619-67q-30.147 0-51.397-19.724t-21.25-49.425q0-14.851 6.5-26.601 6.5-11.75 16.59-21.84l49.905-49.41 51.505 52q9.543 9.308 15.022 20.665 5.478 11.358 5.478 25.168 0 29.709-21.103 49.438-21.103 19.729-51.25 19.729Zm-212.43 203q-27.655 0-47.186-19.681Q201-145.863 201-173.5V-788q0-27.638 19.693-47.319T268.04-855h424.743q27.655 0 47.186 19.681T759.5-788v614.5q0 27.637-19.693 47.319Q720.114-106.5 692.46-106.5H267.717Z"/></svg>