<svg xmlns="http://www.w3.org/2000/svg" height="24" viewBox="0 -960 960 960" width="24"><path d="M381-44Q228-79 131-200.5T34-480q0-157 97-279t250-156q32-7 57 13.5t25 51.898q0 24.197-14.5 43.566-14.5 19.369-37.5 23.334-107.44 24.782-174.72 108.864Q169-589.756 169-480q0 110.721 67.545 194.276T410.947-177.01Q434-172 448.5-153.446q14.5 18.553 14.5 42.985Q463-78 438-57.5T381-44Zm198-1q-32 8-57-12t-25-53.878q0-22.659 14-41.89Q525-172 548.111-177q25.214-6 49.917-16 24.702-10 46.885-24Q665-230 688.5-227q23.5 3 40.5 20 23 23 19.5 55.5T718-102q-32 20-67 34t-72 23Zm174-186q-16-16-20.5-39.588-4.5-23.587 9.5-42.659 14-23.149 24.5-47.318 10.5-24.169 16.5-50.344Q788-434 806.535-448q18.536-14 42.944-14Q882-462 902.5-437t12.5 57q-8 37-22.5 72T857-241q-17 26-49 29.5T753-231Zm96.122-266q-22.659 0-41.39-14Q789-525 783-547.122q-6-27.235-16.5-50.956Q756-621.8 742-645q-13-20-9.5-43t20.5-40q23-24 55-20.5t49 30.5q21 33 35.5 67.5T915-579q8 32-12.5 57t-53.378 25ZM645.747-742.211q-23.15-13.789-47.142-23.9-23.993-10.111-51.514-16.889Q525-787 511-806.035q-14-19.036-14-43.444Q497-881 522-901.5t57-13.5q37 9 72 23.5t67 34.5q27 18 30 49.5T728-753q-17 17-40.088 20.5-23.087 3.5-42.165-9.711ZM532-462l55-54q15-16 36.378-15.5T660-516q16 16.06 16 37.644 0 21.585-16.005 36.645L528.561-310q-21.11 20-48.28 20-27.171 0-47.281-20L299-442.358q-16-15.112-16-36.765 0-21.654 16-37.765Q314-532 334.733-532q20.734 0 37.267 15l55 55v-182.767Q427-667 442.5-682q15.5-15 37.5-15 21 0 36.5 15t15.5 37.25V-462Z"/></svg>