<svg xmlns="http://www.w3.org/2000/svg" height="20" viewBox="0 -960 960 960" width="20"><path d="M714.5-314.5v-108h-108v-67h108v-108h67v108h108v67h-108v108h-67ZM432-155l-69.5-62.5Q271-299 211.75-358.75t-93.25-107Q84.5-513 71.25-553T58-634.521q0-85.979 58.995-145.229Q175.991-839 262-839q48.288 0 93.644 21.25Q401-796.5 432-757.5q32.5-39 77.373-60.25Q554.247-839 602-839q76.5 0 134.5 49t69 129.5q-28.5-6-37-7.75T748-670q-89.545 0-151.523 62.661-61.977 62.66-61.977 152.458 0 43.381 16 82.131T597-305q-17.5 17-58.25 53.75T476-194.5L432-155Z"/></svg>