<?xml version="1.0" encoding="UTF-8"?>
<svg width="9px" height="9px" viewBox="0 0 9 9" version="1.1" xmlns="http://www.w3.org/2000/svg" xmlns:xlink="http://www.w3.org/1999/xlink">
    <title>helicopter</title>
    <g id="helicopter" stroke="none" stroke-width="1" fill="none" fill-rule="evenodd">
        <g id="helicopter_20dp_FILL0_wght400_GRAD0_opsz20" fill="#DA954B" fill-rule="nonzero">
            <path d="M3.25,4.25 L3.25,2.01041667 C2.63888889,2.06597222 2.10416667,2.30208333 1.64583333,2.71875 C1.1875,3.13541667 0.888888889,3.64583333 0.75,4.25 L3.25,4.25 Z M4.75,6 L4.75,2 L4,2 L4,5 L0.75,5 L0.75,6 L4.75,6 Z M5.5,4.65625 L8.25,4.33333333 L8.25,3.75 L5.5,3.75 L5.5,4.65625 Z M4.75,8 L0.75,8 L0.75,7.25 L4.75,7.25 L4.75,8 Z M5.5,6.75 L0.75,6.75 C0.54375,6.75 0.3671875,6.6765625 0.2203125,6.5296875 C0.0734375,6.3828125 0,6.20625 0,6 L0,4.75 C0,3.77777778 0.340277778,2.95138889 1.02083333,2.27083333 C1.70138889,1.59027778 2.52777778,1.25 3.5,1.25 L5.5,1.25 L5.5,3 L8,3 L8.25,2.25 L9,2.25 L9,5 L5.5,5.40625 L5.5,6.75 Z M7,0.75 L1,0.75 L1,0 L7,0 L7,0.75 Z M5.54479167,4.65625 L5.54479167,3.75 L5.54479167,4.65625 Z" id="Shape"></path>
        </g>
    </g>
</svg>