<?xml version="1.0" encoding="UTF-8"?>
<svg width="71px" height="60px" viewBox="0 0 71 60" version="1.1" xmlns="http://www.w3.org/2000/svg" xmlns:xlink="http://www.w3.org/1999/xlink">
    <title>hvsign</title>
    <g id="Page-1" stroke="none" stroke-width="1" fill="none" fill-rule="evenodd">
        <g id="hvsign" transform="translate(1.000000, 1.000000)">
            <path d="M65.7411576,57.9540392 L2.71322175,58 C0.249767451,58.001997 -0.786817385,55.5081912 0.663308151,53.0683379 L30.9439091,2.1201649 C32.6732069,-0.707147481 35.8793648,-0.737920406 37.6086626,2.21558094 L68.2371108,53.0228779 C69.9216854,55.4477444 68.6962692,57.9965019 65.7415552,57.9535397 L65.7411576,57.9540392 Z" id="path634" stroke="#FFE600" fill="#000000" fill-rule="nonzero" stroke-linejoin="round"></path>
            <polygon id="path609" fill="#FFE600" points="49.9528674 35.5047913 58.8388741 50.8722702 28.2809892 51.1330407 10.3668553 50.9561963 25.2745951 24.7592458 34.3027222 9.56761223 49.9528674 35.5047913"></polygon>
            <polygon id="path615" fill="#000000" fill-rule="nonzero" points="32.4919288 18.9623462 24.8611537 37.7258371 35.54404 34.0680554 31.7872896 48.1116991 39.7698873 30.8818588 28.3833557 34.4217442 36.6005018 18.84445 32.4919288 18.9623462"></polygon>
            <polygon id="path617" fill="#000000" fill-rule="nonzero" points="30.9653762 42.9182685 31.9045638 48.7011804 36.0131369 43.8624378 33.0782999 44.5708145 30.9653762 42.9182685"></polygon>
        </g>
    </g>
</svg>