<svg version="1.1" xmlns="http://www.w3.org/2000/svg" viewBox="0 0 13.0 13.0" width="13.0" height="13.0"><defs><svg version="1.1" id="marker" xmlns="http://www.w3.org/2000/svg" viewBox="0 -1 32 31" width="13.0" height="13.0"><g transform=""><path paint-order="stroke" fill="#bcbc12" stroke="#bcbc12" stroke-width="1.2" d="M16.36 20.96l2.57.27s.44.05.4.54l-.02.63s-.03.47-.45.54l-2.31.34-.44-.74-.22 1.63-.25-1.62-.38.73-2.35-.35s-.44-.1-.43-.6l-.02-.6s0-.5.48-.5l2.5-.27-.56-5.4-3.64-.1-5.83-1.02h-.45v-2.06s-.07-.37.46-.34l5.8-.17 3.55.12s-.1-2.52.52-2.82l-1.68-.04s-.1-.06 0-.14l1.94-.03s.35-1.18.7 0l1.91.04s.11.05 0 .14l-1.7.02s.62-.09.56 2.82l3.54-.1 5.81.17s.51-.04.48.35l-.01 2.06h-.47l-5.8 1-3.67.11z"/></g></svg></defs><g transform="rotate(270.0 6.5 6.5)" ><use href="#marker" x="0" y="0" width="13.0" height="13.0"/></g></svg>