<?xml version="1.0" encoding="UTF-8"?>
<svg width="19px" height="16px" viewBox="0 0 19 16" version="1.1" xmlns="http://www.w3.org/2000/svg" xmlns:xlink="http://www.w3.org/1999/xlink">
    <title>dishwasher</title>
    <defs>
        <linearGradient x1="50%" y1="0%" x2="50%" y2="100%" id="linearGradient-1">
            <stop stop-color="#FFFFFF" stop-opacity="0" offset="0%"></stop>
            <stop stop-color="#FBFBFB" stop-opacity="0.147344843" offset="29.789245%"></stop>
            <stop stop-color="#000000" stop-opacity="0.5" offset="100%"></stop>
        </linearGradient>
        <rect id="path-2" x="2" y="0" width="15" height="16" rx="1"></rect>
        <linearGradient x1="20.5502715%" y1="34.2297301%" x2="60.2924974%" y2="117.779142%" id="linearGradient-3">
            <stop stop-color="#B99C42" offset="0%"></stop>
            <stop stop-color="#69501A" offset="100%"></stop>
        </linearGradient>
    </defs>
    <g id="dishwasher" stroke="none" stroke-width="1" fill="none" fill-rule="evenodd">
        <g id="Rectangle">
            <use fill="#424559" xlink:href="#path-2"></use>
            <rect stroke="#25262D" stroke-width="1" stroke-linejoin="square" fill="url(#linearGradient-1)" x="2.5" y="0.5" width="14" height="15" rx="1"></rect>
        </g>
        <g id="Group" transform="translate(2.000000, 2.000000)">
            <circle id="Oval-Copy" stroke="#AB9667" stroke-width="0.5" fill="url(#linearGradient-3)" cx="10.5" cy="3.5" r="3.25"></circle>
            <circle id="Oval" stroke="#B5A582" fill-opacity="0.429441652" fill="#D3CBBA" cx="10.5" cy="8.5" r="1.5"></circle>
        </g>
        <g id="Group-4" transform="translate(4.500000, 2.000000)" fill="#AFD9E2" stroke="#85AAB2">
            <path d="M0,3.5 L0,1.5 C-1.01453063e-16,0.671572875 0.671572875,1.01453063e-16 1.5,0 C2.32842712,-1.52179594e-16 3,0.671572875 3,1.5 L3,3.5 L3,3.5" id="Path-4"></path>
        </g>
        <path d="M1.3353097,5.5 L17.6646903,5.5 C18.2169751,5.5 18.6646903,5.94771525 18.6646903,6.5 C18.6646903,6.59523337 18.6510866,6.68997845 18.6242913,6.78136448 L16.3611111,14.5 L16.3611111,14.5 L2.63888889,14.5 L0.375708722,6.78136448 C0.220315409,6.2513915 0.523972229,5.69579234 1.05394521,5.54039903 C1.14533124,5.51360374 1.24007633,5.5 1.3353097,5.5 Z" id="Path-6-Copy" stroke="#25262D" fill="#4E5163"></path>
        <path d="M1.3353097,6.5 L17.6646903,6.5 C18.2169751,6.5 18.6646903,6.94771525 18.6646903,7.5 C18.6646903,7.59523337 18.6510866,7.68997845 18.6242913,7.78136448 L16.3611111,15.5 L16.3611111,15.5 L2.63888889,15.5 L0.375708722,7.78136448 C0.220315409,7.2513915 0.523972229,6.69579234 1.05394521,6.54039903 C1.14533124,6.51360374 1.24007633,6.5 1.3353097,6.5 Z" id="Path-6" stroke="#25262D" fill="#4E5163"></path>
        <rect id="Rectangle" fill="#25262D" x="6" y="7" width="7" height="1" rx="0.5"></rect>
        <line x1="12.5" y1="6" x2="13.5" y2="6" id="Line" stroke="#953333" stroke-linecap="round"></line>
        <circle id="Oval" stroke="#979797" cx="9.5" cy="11.5" r="3"></circle>
        <polyline id="Path-5" stroke="#979797" points="9.5 9.5 9.5 11.5 11.5 11.5"></polyline>
    </g>
</svg>