<svg version="1.1" xmlns="http://www.w3.org/2000/svg" viewBox="0 0 15.64 15.64" width="15.64" height="15.64"><defs><svg version="1.1" id="marker" xmlns="http://www.w3.org/2000/svg" viewBox="0 -3.2 64.2 64.2" width="15.64" height="15.64"><g transform=""><path paint-order="stroke" fill="#cbba13" stroke="#cbba13" stroke-width="1.8" d="m 31.414,2.728 c -0.314,0.712 -1.296,2.377 -1.534,6.133 l -0.086,13.379 c 0.006,0.400 -0.380,0.888 -0.945,1.252 l -2.631,1.729 c 0.157,-0.904 0.237,-3.403 -0.162,-3.850 l -2.686,0.006 c -0.336,1.065 -0.358,2.518 -0.109,4.088 h 0.434 L 24.057,26.689 8.611,36.852 7.418,38.432 7.381,39.027 8.875,38.166 l 8.295,-2.771 0.072,0.730 0.156,-0.004 0.150,-0.859 3.799,-1.234 0.074,0.727 0.119,0.004 0.117,-0.832 2.182,-0.730 h 1.670 l 0.061,0.822 h 0.176 l 0.062,-0.822 4.018,-0.002 v 13.602 c 0.051,1.559 0.465,3.272 0.826,4.963 l -6.836,5.426 c -0.097,0.802 -0.003,1.372 0.049,1.885 l 7.734,-2.795 0.477,1.973 h 0.232 l 0.477,-1.973 7.736,2.795 c 0.052,-0.513 0.146,-1.083 0.049,-1.885 l -6.836,-5.426 c 0.361,-1.691 0.775,-3.404 0.826,-4.963 V 33.193 l 4.016,0.002 0.062,0.822 h 0.178 L 38.875,33.195 h 1.672 l 2.182,0.730 0.117,0.832 0.119,-0.004 0.072,-0.727 3.799,1.234 0.152,0.859 0.154,0.004 0.072,-0.730 8.297,2.771 1.492,0.861 -0.037,-0.596 -1.191,-1.580 -15.447,-10.162 0.363,-1.225 H 41.125 c 0.248,-1.569 0.225,-3.023 -0.111,-4.088 l -2.686,-0.006 c -0.399,0.447 -0.317,2.945 -0.160,3.850 L 35.535,23.492 C 34.970,23.128 34.584,22.640 34.590,22.240 L 34.504,8.910 C 34.193,4.926 33.369,3.602 32.934,2.722 32.442,1.732 31.894,1.828 31.414,2.728 Z"/></g></svg></defs><g transform="rotate(99.22 7.82 7.82)" ><use href="#marker" x="0" y="0" width="15.64" height="15.64"/></g></svg>