<svg version="1.1" xmlns="http://www.w3.org/2000/svg" viewBox="0 0 17.4 17.4" width="17.4" height="17.4"><defs><svg version="1.1" id="marker" xmlns="http://www.w3.org/2000/svg" viewBox="-13 -13 90 90" width="17.4" height="17.4"><g transform=""><path paint-order="stroke" fill="#f07215" stroke="#f07215" stroke-width="0.0" d="m 24.698,60.712 c 0,0 -0.450,2.134 -0.861,2.142 -0.561,0.011 -0.480,-3.836 -0.593,-5.761 -0.064,-1.098 1.381,-1.192 1.481,-0.042 l 5.464,0.007 -0.068,-9.482 -0.104,-1.108 c -2.410,-2.131 -3.028,-3.449 -3.152,-7.083 l -12.460,13.179 c -0.773,0.813 -2.977,0.599 -3.483,-0.428 L 26.920,35.416 26.866,29.159 11.471,14.513 c -0.813,-0.773 -0.599,-2.977 0.428,-3.483 l 14.971,14.428 0.150,-5.614 c -0.042,-1.324 1.075,-4.784 3.391,-5.633 0.686,-0.251 2.131,-0.293 3.033,0.008 2.349,0.783 3.433,4.309 3.391,5.633 l 0.073,4.400 12.573,-12.763 c 0.779,-0.807 2.977,-0.599 3.483,0.428 L 37.054,28.325 37.027,35.027 52.411,49.365 c 0.813,0.773 0.599,2.977 -0.428,3.483 L 36.992,38.359 c -0.124,3.634 -0.742,5.987 -3.152,8.118 l -0.104,1.108 -0.068,9.482 5.321,-0.068 c 0.101,-1.150 1.546,-1.057 1.481,0.042 -0.113,1.925 -0.032,5.772 -0.593,5.761 -0.412,-0.008 -0.861,-2.142 -0.861,-2.142 l -5.387,-0.011 0.085,9.377 -1.094,2.059 -1.386,-0.018 -1.093,-2.049 0.085,-9.377 z"/></g></svg></defs><g transform="rotate(525.1800000000001 8.7 8.7)" ><use href="#marker" x="0" y="0" width="17.4" height="17.4"/></g></svg>