<svg width="222" height="63" viewBox="0 0 222 63" fill="none" xmlns="http://www.w3.org/2000/svg">
<path d="M59.534 46.3339H52.1973C50.212 46.3339 49.8668 44.1972 50.212 43.3425C50.3847 42.9152 50.8162 42.3169 51.1615 41.8895C52.5425 42.6587 54.1825 43.0861 55.9088 43.0861C61.433 43.0861 65.835 38.6417 65.835 33.2571C65.835 30.3512 64.5403 27.7871 62.555 25.9068L62.814 25.6504C63.3319 25.1376 64.1087 24.7957 64.8855 24.8811L66.094 24.9666V20.2658H64.0224C61.6056 20.2658 59.6204 21.7188 58.7572 23.77C57.8941 23.5136 56.9446 23.3427 55.9951 23.3427C50.471 23.3427 46.0689 27.7871 46.0689 33.1717C46.0689 35.3084 46.7595 37.3597 47.9679 38.9836C47.7952 39.1545 47.5363 39.3254 47.3637 39.4109C47.2773 39.4964 47.191 39.5819 47.1047 39.6673C45.1195 41.5476 44.17 43.9408 44.6879 46.6758C44.9468 48.1288 46.2416 49.6672 47.5363 50.5219C48.3994 51.1202 49.5215 51.3766 50.6436 51.3766L58.9298 51.0347C59.8793 51.0347 60.7424 51.4621 61.2603 52.3168L62.2961 54.2826L67.3887 52.5732L66.5255 50.6929C65.2308 48.0433 62.555 46.3339 59.534 46.3339ZM55.9951 28.5563C58.5846 28.5563 60.7424 30.6931 60.7424 33.2571C60.7424 35.8212 58.5846 37.9579 55.9951 37.9579C53.4057 37.9579 51.2478 35.8212 51.2478 33.2571C51.2478 30.6076 53.3194 28.5563 55.9951 28.5563Z" fill="#18181A"/>
<path d="M30.6138 23.2563C25.4349 23.5127 21.1192 27.6152 20.7739 32.7434C20.3423 38.8117 25.1759 43.8544 31.1317 43.8544C33.1169 43.8544 34.9295 42.7433 36.4832 41.8031V43.598H41.5758V33.1707C41.3168 27.4443 36.4832 22.9999 30.6138 23.2563ZM31.1317 39.0681C28.0243 39.0681 25.6075 36.5895 25.6075 33.5981C25.6075 30.5212 28.1106 28.128 31.1317 28.128C34.239 28.128 36.6558 30.6066 36.6558 33.5981C36.7421 36.5895 34.239 39.0681 31.1317 39.0681Z" fill="#18181A"/>
<path d="M20.8607 23.5991H13.6965L7.48188 29.7529L5.32401 31.8897V20.0949H0.231445V43.5989H5.32401V34.7956L7.48188 36.9323V36.8469L14.2144 43.5989H21.3786L10.4166 33.3426L20.8607 23.5991Z" fill="#18181A"/>
<path d="M70.75 41.8043V43.5136H75.8426V23.5993H70.75V41.8043Z" fill="#18181A"/>
<path d="M73.2575 20.7783C75.069 20.7783 76.5375 19.3242 76.5375 17.5304C76.5375 15.7367 75.069 14.2826 73.2575 14.2826C71.446 14.2826 69.9775 15.7367 69.9775 17.5304C69.9775 19.3242 71.446 20.7783 73.2575 20.7783Z" fill="#18181A"/>
<path d="M138.971 16.6061H144.36V43.5138H138.895L126.65 25.8419V43.5138H121.261V16.6061H126.726L138.971 34.278V16.6061ZM169.325 33.6115C169.325 34.2462 169.287 34.8429 169.211 35.4015H153.805C154.161 36.6583 154.84 37.6549 155.843 38.3912C156.846 39.1276 158.064 39.4957 159.499 39.4957C160.654 39.4957 161.714 39.2672 162.679 38.8102C163.644 38.3405 164.406 37.7501 164.964 37.0392L168.354 40.0099C167.3 41.2667 165.993 42.2443 164.431 42.9425C162.882 43.6407 161.188 43.9899 159.347 43.9899C157.265 43.9899 155.379 43.5328 153.691 42.6188C152.002 41.7047 150.682 40.4479 149.73 38.8483C148.778 37.236 148.302 35.4523 148.302 33.4972C148.302 31.5675 148.759 29.8156 149.673 28.2413C150.6 26.6544 151.869 25.4103 153.481 24.5089C155.106 23.6075 156.903 23.1569 158.871 23.1569C161.854 23.1569 164.342 24.1534 166.335 26.1466C168.329 28.1271 169.325 30.6154 169.325 33.6115ZM162.051 28.7174C161.137 27.9684 160.064 27.5939 158.833 27.5939C157.601 27.5939 156.528 27.9684 155.614 28.7174C154.7 29.4537 154.084 30.444 153.767 31.6881H163.917C163.6 30.444 162.978 29.4537 162.051 28.7174ZM197.071 23.6329H202.612L195.547 43.5138H190.33L186.121 29.7838L181.913 43.5138H176.676L169.611 23.6329H175.267L179.399 37.0392L183.588 23.6329H188.768L192.977 37.0392L197.071 23.6329ZM211.677 43.9899C208.452 43.9899 205.659 42.9742 203.298 40.943L205.754 37.5914C207.443 39.0641 209.379 39.8004 211.562 39.8004C212.604 39.8004 213.448 39.6354 214.095 39.3053C214.755 38.9752 215.085 38.5182 215.085 37.9342C215.085 37.6168 214.99 37.3375 214.8 37.0963C214.622 36.8551 214.33 36.6456 213.924 36.4679C213.518 36.2902 213.124 36.1442 212.743 36.0299C212.375 35.9156 211.854 35.7823 211.182 35.63C210.725 35.5284 210.363 35.4459 210.096 35.3824C209.83 35.319 209.461 35.2238 208.992 35.0968C208.535 34.9572 208.16 34.8302 207.868 34.7159C207.589 34.6017 207.252 34.4493 206.859 34.2589C206.465 34.0558 206.142 33.8527 205.888 33.6495C205.646 33.4464 205.386 33.1989 205.107 32.9069C204.84 32.6149 204.625 32.3038 204.459 31.9738C204.307 31.6437 204.18 31.2628 204.079 30.8312C203.977 30.3995 203.926 29.9362 203.926 29.441C203.926 28.0826 204.301 26.921 205.05 25.9562C205.799 24.9913 206.77 24.2867 207.963 23.8424C209.169 23.3854 210.528 23.1569 212.039 23.1569C214.971 23.1569 217.542 24.0265 219.751 25.7657L217.294 29.1554C215.669 27.9366 213.956 27.3273 212.153 27.3273C211.239 27.3273 210.49 27.4733 209.906 27.7653C209.322 28.0573 209.03 28.4825 209.03 29.0411C209.03 29.3585 209.119 29.6378 209.296 29.879C209.474 30.1075 209.766 30.3107 210.172 30.4884C210.579 30.6534 210.972 30.7931 211.353 30.9073C211.734 31.0089 212.261 31.1295 212.934 31.2692C213.518 31.3961 213.987 31.504 214.343 31.5929C214.698 31.6818 215.162 31.8214 215.733 32.0118C216.304 32.2023 216.768 32.3927 217.123 32.5831C217.491 32.7736 217.885 33.0338 218.304 33.3639C218.735 33.6813 219.072 34.024 219.313 34.3922C219.554 34.7604 219.757 35.2111 219.922 35.7443C220.1 36.2775 220.189 36.8551 220.189 37.4772C220.189 38.8356 219.808 40.0162 219.046 41.0192C218.285 42.0221 217.269 42.7711 216 43.2662C214.73 43.7487 213.289 43.9899 211.677 43.9899Z" fill="#18181A"/>
<path d="M100.681 42.7742H93.6138C88.8997 42.7742 86.5427 42.7742 85.0782 41.3098C83.6138 39.8453 83.6138 37.4883 83.6138 32.7742V22.1457L84.0785 22.5696C84.7686 23.1991 85.6231 23.6198 86.5429 23.7828V23.7828C86.8271 23.8332 87.1153 23.8585 87.404 23.8585H93.3271H97.4625H99.5992C104.106 23.8585 106.359 23.8585 107.801 25.2064C107.882 25.2828 107.961 25.3619 108.038 25.4435C109.386 26.885 109.386 29.1384 109.386 33.645V33.645" stroke="#18181A" stroke-width="2"/>
<path d="M87.327 28.9478H98.8671" stroke="#18181A" stroke-width="2" stroke-linecap="round" stroke-linejoin="round"/>
<path d="M87.3271 33.0002H93.8752" stroke="#18181A" stroke-width="2" stroke-linecap="round" stroke-linejoin="round"/>
<path d="M87.3271 37.0527H93.8752" stroke="#18181A" stroke-width="2" stroke-linecap="round" stroke-linejoin="round"/>
<path d="M83.6138 20.3459C83.6138 18.4059 85.1864 16.8332 87.1264 16.8332H94.0684C95.2095 16.8332 95.78 16.8332 96.2504 16.9488C97.6961 17.3041 98.8248 18.4329 99.1801 19.8786C99.2957 20.3489 99.2957 20.9194 99.2957 22.0605V23.8585H87.1264C85.1864 23.8585 83.6138 22.2858 83.6138 20.3459V20.3459Z" stroke="#18181A" stroke-width="2"/>
<path d="M110.923 37.6489C110.923 37.7074 110.922 37.7657 110.921 37.8238C110.828 41.3279 107.958 44.14 104.432 44.14C104.124 44.14 103.821 44.1185 103.524 44.0769C100.369 43.6353 97.9409 40.9256 97.9409 37.6489C97.9409 37.5904 97.9417 37.5321 97.9432 37.474C98.0359 33.9699 100.906 31.1578 104.432 31.1578C104.74 31.1578 105.043 31.1793 105.34 31.2208C108.495 31.6624 110.923 34.3721 110.923 37.6489Z" fill="#FFB319"/>
<path fill-rule="evenodd" clip-rule="evenodd" d="M97.9432 37.474C98.24 37.5156 98.5431 37.537 98.8513 37.537C102.378 37.537 105.247 34.7249 105.34 31.2208C105.043 31.1793 104.74 31.1578 104.432 31.1578C100.906 31.1578 98.0359 33.9699 97.9432 37.474Z" fill="#FFB319"/>
<path fill-rule="evenodd" clip-rule="evenodd" d="M110.921 37.8238C110.624 37.7823 110.321 37.7608 110.013 37.7608C106.486 37.7608 103.617 40.5729 103.524 44.0769C103.821 44.1185 104.124 44.14 104.432 44.14C107.958 44.14 110.828 41.3279 110.921 37.8238Z" fill="#FFB319"/>
<path d="M110.921 37.8238C110.922 37.7657 110.923 37.7074 110.923 37.6489C110.923 34.3721 108.495 31.6624 105.34 31.2208M110.921 37.8238C110.828 41.3279 107.958 44.14 104.432 44.14C104.124 44.14 103.821 44.1185 103.524 44.0769M110.921 37.8238C110.624 37.7823 110.321 37.7608 110.013 37.7608C106.486 37.7608 103.617 40.5729 103.524 44.0769M103.524 44.0769C100.369 43.6353 97.9409 40.9256 97.9409 37.6489C97.9409 37.5904 97.9417 37.5321 97.9432 37.474M97.9432 37.474C98.0359 33.9699 100.906 31.1578 104.432 31.1578C104.74 31.1578 105.043 31.1793 105.34 31.2208M97.9432 37.474C98.24 37.5156 98.5431 37.537 98.8513 37.537C102.378 37.537 105.247 34.7249 105.34 31.2208" stroke="#18181A" stroke-width="2"/>
</svg>