<svg version="1.1" xmlns="http://www.w3.org/2000/svg" viewBox="0 0 11.0 11.0" width="11.0" height="11.0"><defs><svg version="1.1" id="marker" xmlns="http://www.w3.org/2000/svg" viewBox="-2.5 -2.5 22 22" width="11.0" height="11.0"><g transform=""><path paint-order="stroke" fill="#f07615" stroke="#f07615" stroke-width="1.0" d="M 4.256,15.496 C 3.979,14.340 7.280,13.606 7.280,13.606 V 8.650 l -6,2 c -0.680,0 -1,-0.350 -1,-0.660 C 0.242,9.595 0.496,9.231 0.880,9.130 1.140,9 4.800,7 7.280,5.630 V 3 C 7.280,1.890 7.720,0.290 8.510,0.290 9.300,0.290 9.770,1.840 9.770,3 v 2.630 c 2.450,1.370 6.100,3.370 6.370,3.500 0.390,0.093 0.651,0.461 0.610,0.860 -0.050,0.310 -0.360,0.670 -1.050,0.670 l -5.930,-2 v 4.946 c 0,0 3.300,0.734 3.024,1.890 -0.331,1.384 -2.830,0.378 -4.254,0.378 -1.434,4.520e-4 -3.950,1.016 -4.284,-0.378 z"/></g></svg></defs><g transform="rotate(85.11 5.5 5.5)" ><use href="#marker" x="0" y="0" width="11.0" height="11.0"/></g></svg>